<svg xmlns="http://www.w3.org/2000/svg" width="26.315" height="26.315" viewBox="0 0 26.315 26.315"><defs><style>.a{fill:none;stroke:#000;stroke-miterlimit:10;stroke-width:8px;}</style></defs><g transform="translate(-18 -18)"><g transform="translate(20.796 37.9)"><path class="a" d="M35,139" transform="translate(-35 -139)"/></g><path d="M44.315,31.157a13.157,13.157,0,1,1-26.315,0,12.3,12.3,0,0,1,4.9-9.868H18V19.974h7.237V27.21H23.921V22.161a11.085,11.085,0,0,0-4.605,9A11.842,11.842,0,1,0,31.157,19.316V18A13.175,13.175,0,0,1,44.315,31.157Zm-6.908-.987H31.486V22.276H30.171v9.21h7.237Z"/></g></svg>