<svg xmlns="http://www.w3.org/2000/svg" width="45" height="45" viewBox="0 0 45 45"><path d="M38.5,16A22.5,22.5,0,1,0,61,38.5,22.53,22.53,0,0,0,38.5,16ZM28.375,56.022c.2-5.794,4.219-9.647,10.125-9.647s9.9,3.853,10.125,9.647A20.265,20.265,0,0,1,38.5,58.75,19.981,19.981,0,0,1,28.375,56.022Zm4.5-18.647A5.625,5.625,0,1,1,38.5,43,5.642,5.642,0,0,1,32.875,37.375ZM50.763,54.616a11.569,11.569,0,0,0-8.916-10.1,7.889,7.889,0,1,0-6.666,0,11.5,11.5,0,0,0-8.916,10.1,20.236,20.236,0,1,1,24.5,0Z" transform="translate(-16 -16)"/></svg>